<svg width="76.000000" height="76.000000" viewBox="0 0 76 76" fill="none" xmlns="http://www.w3.org/2000/svg" xmlns:xlink="http://www.w3.org/1999/xlink">
	<desc>
			Created with Pixso.
	</desc>
	<defs>
		<clipPath id="clip53_155">
			<rect id="COCO/Line/Plus" width="30.000000" height="30.000000" transform="translate(23.000000 23.000000)" fill="white" fill-opacity="0"/>
		</clipPath>
	</defs>
	<circle id="Ellipse 3" cx="38.000000" cy="38.000000" r="32.000000" fill="#887266" fill-opacity="1.000000"/>
	<circle id="Ellipse 3" cx="38.000000" cy="38.000000" r="35.000000" stroke="#E5E5E5" stroke-opacity="0.600000" stroke-width="6.000000"/>
	<g clip-path="url(#clip53_155)">
		<path id="Vector" d="M30.75 38.34L35.33 43.68L34.57 44.33L33.81 43.68L45.24 30.34L46.75 31.65L35.33 44.98Q35.28 45.04 35.22 45.09Q35.14 45.15 35.06 45.2Q34.97 45.25 34.88 45.28Q34.78 45.31 34.69 45.32Q34.59 45.33 34.49 45.33Q34.39 45.32 34.3 45.29Q34.2 45.26 34.11 45.22Q34.03 45.18 33.95 45.11Q33.87 45.05 33.81 44.98L29.24 39.65L30.75 38.34ZM45.24 30.37L45.24 30.34C45.6 29.92 46.22 29.87 46.65 30.24C47.07 30.6 47.12 31.22 46.75 31.65L46.73 31.65L45.24 30.37ZM29.26 39.65L29.24 39.65C28.87 39.22 28.92 38.6 29.34 38.24C29.77 37.87 30.39 37.92 30.75 38.34L30.75 38.37L29.26 39.65Z" fill="#FFFFFF" fill-opacity="1.000000" fill-rule="evenodd"/>
	</g>
</svg>
