<svg width="76" height="76" viewBox="0 0 76 76" fill="none" xmlns="http://www.w3.org/2000/svg">
<circle cx="38" cy="38" r="32" fill="#887266"/>
<circle cx="38" cy="38" r="35" stroke="#E5E5E5" stroke-opacity="0.6" stroke-width="6"/>
<path d="M31.6934 39.9666V45.0674M43.5431 39.9666V45.0674" stroke="white" stroke-width="1.5"/>
<path d="M43.4648 30V35.1009" stroke="white" stroke-width="1.5" stroke-linejoin="round"/>
<path d="M43.3839 30.0784H32.7695C32.2172 30.0784 31.7695 30.5261 31.7695 31.0784V34.1008C31.7695 34.6531 32.2172 35.1008 32.7695 35.1008H43.3839" stroke="white" stroke-width="1.5"/>
<path d="M43.3867 30.0784H54.0011C54.5534 30.0784 55.0011 30.5261 55.0011 31.0784V34.1008C55.0011 34.6531 54.5534 35.1008 54.0011 35.1008H43.3867" stroke="white" stroke-width="1.5"/>
<path d="M32.5561 35.1008H26.8856C26.3334 35.1008 25.8857 35.5486 25.8857 36.1008V39.9663M25.8857 39.9663H21C20.4477 39.9663 20 40.414 20 40.9663V44.2242C20 44.7764 20.4477 45.2242 21 45.2242H54C54.5523 45.2242 55 44.7764 55 44.2242V39.9663M25.8857 39.9663H37.5785M55 34.5515V39.9663M55 39.9663H37.5785M37.5785 39.9663V35.1008" stroke="white" stroke-width="1.5" stroke-linejoin="round"/>
<path d="M49.2695 35.1008V39.8878" stroke="white" stroke-width="1.5"/>
</svg>
