<svg width="76" height="76" viewBox="0 0 76 76" fill="none" xmlns="http://www.w3.org/2000/svg">
<circle cx="38" cy="38" r="32" fill="#887266"/>
<circle cx="38" cy="38" r="35" stroke="#E5E5E5" stroke-opacity="0.6" stroke-width="6"/>
<path fill-rule="evenodd" clip-rule="evenodd" d="M31.8701 27C31.4301 25.27 29.86 24 28 24C25.79 24 24 25.79 24 28C24 29.86 25.27 31.43 27 31.87V44.13C25.27 44.57 24 46.14 24 48C24 50.21 25.79 52 28 52C29.86 52 31.4301 50.73 31.8701 49H44.1299C44.5699 50.73 46.14 52 48 52C50.21 52 52 50.21 52 48C52 46.14 50.73 44.57 49 44.13V31.87C50.73 31.43 52 29.86 52 28C52 25.79 50.21 24 48 24C46.14 24 44.5699 25.27 44.1299 27H31.8701ZM28 26C26.9 26 26 26.9 26 28C26 29.1 26.9 30 28 30C29.1 30 30 29.1 30 28C30 26.9 29.1 26 28 26ZM47 31.87C45.59 31.51 44.4899 30.41 44.1299 29H31.8701C31.5101 30.41 30.41 31.51 29 31.87V44.13C30.41 44.49 31.5101 45.59 31.8701 47H44.1299C44.4899 45.59 45.59 44.49 47 44.13V31.87ZM48 46C46.9 46 46 46.9 46 48C46 49.1 46.9 50 48 50C49.1 50 50 49.1 50 48C50 46.9 49.1 46 48 46ZM26 48C26 46.9 26.9 46 28 46C29.1 46 30 46.9 30 48C30 49.1 29.1 50 28 50C26.9 50 26 49.1 26 48ZM46 28C46 29.1 46.9 30 48 30C49.1 30 50 29.1 50 28C50 26.9 49.1 26 48 26C46.9 26 46 26.9 46 28Z" fill="white"/>
</svg>
