<svg width="76" height="76" viewBox="0 0 76 76" fill="none" xmlns="http://www.w3.org/2000/svg">
<circle cx="38" cy="38" r="32" fill="#887266"/>
<circle cx="38" cy="38" r="35" stroke="#E5E5E5" stroke-opacity="0.6" stroke-width="6"/>
<path fill-rule="evenodd" clip-rule="evenodd" d="M34.323 25.6117C36.303 23.4627 39.697 23.4627 41.677 25.6117L50.677 35.3798C51.528 36.3028 52 37.5128 52 38.7678V49.0967C52 50.7537 50.657 52.0967 49 52.0967H27C25.343 52.0967 24 50.7537 24 49.0967V38.7678C24 37.5128 24.472 36.3028 25.323 35.3798L34.323 25.6117ZM35 50.0967H41V41.0967H35V50.0967ZM33 50.0967H27C26.448 50.0967 26 49.6487 26 49.0967V38.7678C26 38.0148 26.283 37.2887 26.794 36.7347L35.794 26.9667C36.982 25.6777 39.018 25.6777 40.206 26.9667L49.206 36.7347C49.717 37.2887 50 38.0148 50 38.7678V49.0967C50 49.6487 49.552 50.0967 49 50.0967H43V41.0967C43 39.9917 42.105 39.0967 41 39.0967H35C33.895 39.0967 33 39.9917 33 41.0967V50.0967Z" fill="white"/>
</svg>
