<svg width="76" height="76" viewBox="0 0 76 76" fill="none" xmlns="http://www.w3.org/2000/svg">
<circle cx="38" cy="38" r="32" fill="#887266"/>
<circle cx="38" cy="38" r="35" stroke="#E5E5E5" stroke-opacity="0.6" stroke-width="6"/>
<path d="M38.2188 44.5977V28M44.4065 28L47.9007 44.5977" stroke="white" stroke-width="1.5" stroke-linecap="round" stroke-linejoin="round"/>
<path d="M28.6816 44.3064L32.1759 28.1455" stroke="white" stroke-width="1.5" stroke-linecap="round" stroke-linejoin="round"/>
<path d="M29.4828 28.1455H48.6284C48.6284 28.1455 49.2107 28.0727 50.2299 28.9463C51.249 29.8199 51.3946 30.475 51.3946 30.475L52.7084 33.7509M57 44.452C53.4554 41.5764 51.4618 42.0844 47.9004 44.816C45.1341 42.1225 40.7663 42.1953 38.2912 44.816C34.572 42.0357 32.0307 42.1953 28.7548 44.452C24.7893 42.1535 22.412 42.0346 19 44.452M57 44.452V47.2911C55.7131 46.2625 54.9458 45.9603 53.5057 45.8352M57 44.452L52.7084 33.7509M19 44.452V47.2911C23.0824 45.0047 25.1276 45.1532 28.3908 47.7279C31.8426 45.3784 33.8414 44.4434 38.2912 48.0191C41.4499 45.3127 43.9693 44.7432 47.7548 48.0191C49.0878 46.8722 49.7642 46.1475 51.3946 45.8352M19 44.452C19 44.452 20.02 41.9484 21.2633 38.9923C21.9582 37.3399 22.723 35.5461 23.4183 33.9693M27.1533 28.4367C27.1533 28.4367 26.4981 28.5095 25.5517 29.6015C25.2347 29.9672 24.395 31.7542 23.4183 33.9693M23.4183 33.9693C26.246 32.7044 27.8296 32.5348 30.6475 34.3333C33.6246 32.8224 35.2529 32.6053 38 34.3333C40.9278 32.9746 42.5705 32.4139 45.4981 34.3333C48.0509 32.5165 49.6055 32.2679 52.7084 33.7509M21.4165 38.6283C24.2443 37.3634 27.1744 37.1938 29.9923 38.9923C32.9695 37.4814 35.544 37.2643 38.2912 38.9923C41.219 37.6336 43.8808 37.0729 46.8084 38.9923C49.3612 37.1755 51.7075 37.5093 54.8104 38.9923" stroke="white" stroke-width="1.5" stroke-linecap="round" stroke-linejoin="round"/>
</svg>
