<svg width="76" height="76" viewBox="0 0 76 76" fill="none" xmlns="http://www.w3.org/2000/svg">
<circle cx="38" cy="38" r="32" fill="#887266"/>
<circle cx="38" cy="38" r="35" stroke="#E5E5E5" stroke-opacity="0.6" stroke-width="6"/>
<path d="M38.8233 38.5H45.6023L41.0628 36.2511M38.8233 38.5L41.0628 36.2511M38.8233 38.5H37.7804M37.7804 34.625L41.0628 36.2511M37.7804 34.625L34.1174 36.3925M37.7804 34.625V38.5M36.2161 38.5H29.75L34.1174 36.3925M36.2161 38.5L34.1174 36.3925M36.2161 38.5H37.7804" stroke="white" stroke-width="1.5" stroke-linecap="round" stroke-linejoin="round"/>
<rect x="22" y="48.0112" width="31" height="3.875" rx="1" fill="white"/>
<path d="M24.1152 48.0114V29.517M24.1152 29.517H35.0357M24.1152 29.517L31.4913 25.9727M50.888 29.517V48.0114M50.888 29.517H39.4391M50.888 29.517L43.2213 25.7348M29.0471 48.0114V38.6761M45.78 38.6761V48.0114M37.6777 23L43.2213 25.7348M37.6777 23L31.4913 25.9727M37.6777 23V29.517M39.4391 29.517L43.2213 25.7348M39.4391 29.517H37.6777M35.0357 29.517L31.4913 25.9727M35.0357 29.517H37.6777" stroke="white" stroke-width="1.5" stroke-linecap="round" stroke-linejoin="round"/>
<path d="M24.1191 29.6931L29.2271 38.6761M45.6078 38.4999L50.8919 29.6931" stroke="white" stroke-width="1.5" stroke-linecap="round" stroke-linejoin="round"/>
</svg>
