<svg width="76" height="76" viewBox="0 0 76 76" fill="none" xmlns="http://www.w3.org/2000/svg">
<circle cx="38" cy="38" r="32" fill="#887266"/>
<circle cx="38" cy="38" r="35" stroke="#E5E5E5" stroke-opacity="0.6" stroke-width="6"/>
<path fill-rule="evenodd" clip-rule="evenodd" d="M45 44.16C43.03 43.44 40.62 43 38 43C35.38 43 32.97 43.44 31 44.16V50.91C31 51.25 30.83 51.57 30.54 51.75C30.26 51.94 29.9 51.9599 29.59 51.8199C26.41 50.3899 24 47.99 24 45V32C24 29.52 25.85 27.51 28.33 26.17C30.86 24.81 34.28 24 38 24C41.72 24 45.14 24.81 47.67 26.17C50.15 27.51 52 29.52 52 32V45C52 47.99 49.59 50.3899 46.41 51.8199C46.1 51.9599 45.74 51.94 45.46 51.75C45.17 51.57 45 51.25 45 50.91V44.16ZM26 32C26 30.61 27.06 29.1301 29.28 27.9301C31.46 26.7601 34.54 26 38 26C41.46 26 44.54 26.7601 46.72 27.9301C48.94 29.1301 50 30.61 50 32C50 33.81 48.5 35.69 45.59 37C45.23 37.16 45 37.52 45 37.91V42.05C42.94 41.38 40.54 41 38 41C35.46 41 33.06 41.38 31 42.05V37.91C31 37.52 30.77 37.16 30.41 37C27.5 35.69 26 33.81 26 32ZM26 36.42V45C26 46.49 27.02 48.03 29 49.25V38.54C27.85 37.96 26.82 37.25 26 36.42ZM50 45V36.42C49.18 37.25 48.15 37.96 47 38.54V49.25C48.98 48.03 50 46.49 50 45Z" fill="white"/>
</svg>
