<svg width="76" height="76" viewBox="0 0 76 76" fill="none" xmlns="http://www.w3.org/2000/svg">
<circle cx="38" cy="38" r="32" fill="#887266"/>
<circle cx="38" cy="38" r="35" stroke="#E5E5E5" stroke-opacity="0.6" stroke-width="6"/>
<path d="M36.6243 45.1402H36.1243V45.6402V49.4347C36.1243 49.5759 36.0067 49.6936 35.8654 49.6936C35.7242 49.6936 35.6065 49.5759 35.6065 49.4347V45.6402V45.1402H35.1065H29.0354H28.5354V45.6402V49.4347C28.5354 49.5759 28.4177 49.6936 28.2765 49.6936C28.1352 49.6936 28.0176 49.5759 28.0176 49.4347V31.2213C28.0176 30.2376 28.8106 29.4446 29.7943 29.4446H48.0077C48.1489 29.4446 48.2666 29.5622 48.2666 29.7035C48.2666 29.8447 48.1489 29.9624 48.0077 29.9624H44.2132H43.7132V30.4624V36.5335V37.0335H44.2132H48.0077C48.1489 37.0335 48.2666 37.1512 48.2666 37.2924C48.2666 37.4337 48.1489 37.5513 48.0077 37.5513H44.2132H43.7132V38.0513V44.1224V44.6224H44.2132H48.0077C48.1489 44.6224 48.2666 44.7401 48.2666 44.8813C48.2666 45.0226 48.1489 45.1402 48.0077 45.1402H44.2132H43.7132V45.6402V49.4347C43.7132 49.5759 43.5956 49.6936 43.4543 49.6936C43.3131 49.6936 43.1954 49.5759 43.1954 49.4347V45.6402V45.1402H42.6954H36.6243ZM28.5354 36.5335V37.0335H29.0354H35.1065H35.6065V36.5335V30.4624V29.9624H35.1065H29.7943C29.1007 29.9624 28.5354 30.5277 28.5354 31.2213V36.5335ZM36.6243 29.9624H36.1243V30.4624V36.5335V37.0335H36.6243H42.6954H43.1954V36.5335V30.4624V29.9624H42.6954H36.6243ZM35.6065 38.0513V37.5513H35.1065H29.0354H28.5354V38.0513V44.1224V44.6224H29.0354H35.1065H35.6065V44.1224V38.0513ZM36.1243 44.1224V44.6224H36.6243H42.6954H43.1954V44.1224V38.0513V37.5513H42.6954H36.6243H36.1243V38.0513V44.1224Z" fill="white" stroke="white"/>
<path d="M56.8379 32H51.8477V30.9502L53.6396 29.1387C54.001 28.7676 54.2907 28.4583 54.5088 28.2109C54.7301 27.9603 54.8896 27.7324 54.9873 27.5273C55.0882 27.3223 55.1387 27.1025 55.1387 26.8682C55.1387 26.585 55.0589 26.3734 54.8994 26.2334C54.7432 26.0902 54.5332 26.0186 54.2695 26.0186C53.9928 26.0186 53.7243 26.082 53.4639 26.209C53.2035 26.3359 52.9316 26.5166 52.6484 26.751L51.8281 25.7793C52.0332 25.6035 52.2497 25.4375 52.4775 25.2812C52.7087 25.125 52.9756 24.9997 53.2783 24.9053C53.5843 24.8076 53.9505 24.7588 54.377 24.7588C54.8457 24.7588 55.2477 24.8434 55.583 25.0127C55.9215 25.182 56.182 25.4131 56.3643 25.7061C56.5465 25.9958 56.6377 26.3245 56.6377 26.6924C56.6377 27.0863 56.5596 27.446 56.4033 27.7715C56.2471 28.097 56.0192 28.4193 55.7197 28.7383C55.4235 29.0573 55.0654 29.4105 54.6455 29.7979L53.7275 30.6621V30.7305H56.8379V32Z" fill="white"/>
</svg>
