<svg width="76" height="76" viewBox="0 0 76 76" fill="none" xmlns="http://www.w3.org/2000/svg">
<circle cx="38" cy="38" r="32" fill="#887266"/>
<circle cx="38" cy="38" r="35" stroke="#E5E5E5" stroke-opacity="0.6" stroke-width="6"/>
<path fill-rule="evenodd" clip-rule="evenodd" d="M36 46H44V51C44 51.55 44.45 52 45 52C45.55 52 46 51.55 46 51V46H51C51.55 46 52 45.55 52 45C52 44.45 51.55 44 51 44H46V36H51C51.55 36 52 35.55 52 35C52 34.45 51.55 34 51 34H46V26H51C51.55 26 52 25.55 52 25C52 24.45 51.55 24 51 24H27C25.34 24 24 25.34 24 27V51C24 51.55 24.45 52 25 52C25.55 52 26 51.55 26 51V46H34V51C34 51.55 34.45 52 35 52C35.55 52 36 51.55 36 51V46ZM27 26C26.45 26 26 26.45 26 27V34H34V26H27ZM36 26V34H44V26H36ZM34 36H26V44H34V36ZM36 44V36H44V44H36Z" fill="white"/>
</svg>
